<svg width="146" height="167" viewBox="0 0 146 167" fill="none" xmlns="http://www.w3.org/2000/svg">
<path fill-rule="evenodd" clip-rule="evenodd" d="M52.0246 40.6874C52.6813 39.2616 53.4506 38.1541 53.9589 37.5701C53.9689 38.9475 53.7566 40.183 53.4279 41.2567C54.4393 41.7447 55.4904 42.4278 56.4946 43.3705C55.7208 43.3471 54.3854 43.1596 52.8929 42.6735C52.2048 44.1907 51.3351 45.2383 50.7649 45.726C50.8035 44.4492 51.0722 43.2255 51.4496 42.1216C50.383 41.649 49.3022 41.0152 48.3387 40.1764C49.084 40.0891 50.4436 40.1621 52.0246 40.6874Z" fill="url(#paint0_linear_1229_554)"/>
<path fill-rule="evenodd" clip-rule="evenodd" d="M46.8336 26.4047C47.2707 25.4557 47.7828 24.7185 48.1212 24.3298C48.1278 25.2466 47.9865 26.0689 47.7677 26.7837C48.4409 27.1084 49.1405 27.5632 49.809 28.1906C49.2939 28.1751 48.405 28.0503 47.4116 27.7267C46.9536 28.7366 46.3747 29.4339 45.9951 29.7586C46.0208 28.9087 46.1997 28.0941 46.4509 27.3594C45.7409 27.0448 45.0215 26.6229 44.3802 26.0646C44.8762 26.0064 45.7812 26.055 46.8336 26.4047Z" fill="url(#paint1_linear_1229_554)"/>
<path fill-rule="evenodd" clip-rule="evenodd" d="M32.7824 12.2071C33.4391 10.7814 34.2084 9.67383 34.7167 9.08987C34.7267 10.4672 34.5144 11.7027 34.1857 12.7765C35.1971 13.2644 36.2482 13.9475 37.2525 14.8902C36.4786 14.8668 35.1432 14.6794 33.6507 14.1932C32.9626 15.7105 32.0929 16.7581 31.5227 17.2458C31.5613 15.9689 31.83 14.7452 32.2074 13.6413C31.1408 13.1687 30.0601 12.5349 29.0966 11.6962C29.8418 11.6088 31.2014 11.6818 32.7824 12.2071Z" fill="url(#paint2_linear_1229_554)"/>
<path fill-rule="evenodd" clip-rule="evenodd" d="M30.5561 44.1723C31.5224 42.0746 32.6541 40.4452 33.4021 39.5861C33.4167 41.6125 33.1044 43.4302 32.6208 45.0099C34.1088 45.7278 35.6552 46.7329 37.1327 48.1198C35.9941 48.0853 34.0295 47.8095 31.8336 47.0944C30.8213 49.3265 29.5418 50.8678 28.7029 51.5853C28.7597 49.7068 29.155 47.9064 29.7102 46.2824C28.141 45.587 26.551 44.6546 25.1334 43.4206C26.2298 43.292 28.2301 43.3994 30.5561 44.1723Z" fill="url(#paint3_linear_1229_554)"/>
<circle cx="36.3692" cy="29.816" r="0.846528" transform="rotate(21.3865 36.3692 29.816)" fill="#2F235A"/>
<circle cx="57.3292" cy="19.1721" r="0.846528" transform="rotate(21.3865 57.3292 19.1721)" fill="#FE9076"/>
<circle cx="17.0948" cy="23.7964" r="0.846528" transform="rotate(21.3865 17.0948 23.7964)" fill="#FFA400"/>
<circle cx="35.2725" cy="57.8817" r="0.846528" transform="rotate(21.3865 35.2725 57.8817)" fill="#23BB86"/>
<path d="M56.6867 15.1261C55.8631 11.9806 52.8905 4.78678 47.5886 1.17525" stroke="#FE9076" stroke-width="0.736823" stroke-linecap="round"/>
<path d="M14.5959 20.3813C12.5466 17.8569 6.86793 12.5333 0.547636 11.4342" stroke="#FFA400" stroke-width="0.736823" stroke-linecap="round"/>
<path d="M31.6699 59.1119C29.8538 59.7743 25.2821 61.8847 21.5237 65.0281" stroke="#23BB86" stroke-width="0.736823" stroke-linecap="round"/>
<path fill-rule="evenodd" clip-rule="evenodd" d="M93.9754 40.6874C93.3187 39.2616 92.5494 38.1541 92.0411 37.5701C92.0311 38.9475 92.2434 40.183 92.5721 41.2567C91.5607 41.7447 90.5096 42.4278 89.5054 43.3705C90.2792 43.3471 91.6146 43.1596 93.1071 42.6735C93.7952 44.1907 94.6649 45.2383 95.2351 45.726C95.1965 44.4492 94.9278 43.2255 94.5504 42.1216C95.617 41.649 96.6978 41.0152 97.6613 40.1764C96.916 40.0891 95.5564 40.1621 93.9754 40.6874Z" fill="url(#paint4_linear_1229_554)"/>
<path fill-rule="evenodd" clip-rule="evenodd" d="M99.1664 26.4047C98.7293 25.4557 98.2172 24.7185 97.8788 24.3298C97.8722 25.2466 98.0135 26.0689 98.2323 26.7837C97.5591 27.1084 96.8595 27.5632 96.191 28.1906C96.7061 28.1751 97.595 28.0503 98.5884 27.7267C99.0464 28.7366 99.6253 29.4339 100.005 29.7586C99.9792 28.9087 99.8003 28.0941 99.5491 27.3594C100.259 27.0448 100.978 26.6229 101.62 26.0646C101.124 26.0064 100.219 26.055 99.1664 26.4047Z" fill="url(#paint5_linear_1229_554)"/>
<path fill-rule="evenodd" clip-rule="evenodd" d="M113.218 12.2071C112.561 10.7814 111.792 9.67383 111.283 9.08987C111.273 10.4672 111.486 11.7027 111.814 12.7765C110.803 13.2644 109.752 13.9475 108.748 14.8902C109.521 14.8668 110.857 14.6794 112.349 14.1932C113.037 15.7105 113.907 16.7581 114.477 17.2458C114.439 15.9689 114.17 14.7452 113.793 13.6413C114.859 13.1687 115.94 12.5349 116.903 11.6962C116.158 11.6088 114.799 11.6818 113.218 12.2071Z" fill="url(#paint6_linear_1229_554)"/>
<path fill-rule="evenodd" clip-rule="evenodd" d="M115.444 44.1723C114.478 42.0746 113.346 40.4452 112.598 39.5861C112.583 41.6125 112.896 43.4302 113.379 45.0099C111.891 45.7278 110.345 46.7329 108.867 48.1198C110.006 48.0853 111.971 47.8095 114.166 47.0944C115.179 49.3265 116.458 50.8678 117.297 51.5853C117.24 49.7068 116.845 47.9064 116.29 46.2824C117.859 45.587 119.449 44.6546 120.867 43.4206C119.77 43.292 117.77 43.3994 115.444 44.1723Z" fill="url(#paint7_linear_1229_554)"/>
<circle cx="0.846528" cy="0.846528" r="0.846528" transform="matrix(-0.931142 0.364658 0.364658 0.931142 110.11 28.7191)" fill="#2F235A"/>
<circle cx="0.846528" cy="0.846528" r="0.846528" transform="matrix(-0.931142 0.364658 0.364658 0.931142 89.1504 18.0752)" fill="#FE9076"/>
<circle cx="0.846528" cy="0.846528" r="0.846528" transform="matrix(-0.931142 0.364658 0.364658 0.931142 129.385 22.6995)" fill="#FFA400"/>
<circle cx="0.846528" cy="0.846528" r="0.846528" transform="matrix(-0.931142 0.364658 0.364658 0.931142 111.207 56.7848)" fill="#23BB86"/>
<path d="M89.3133 15.1261C90.1369 11.9806 93.1095 4.78678 98.4114 1.17525" stroke="#FE9076" stroke-width="0.736823" stroke-linecap="round"/>
<path d="M131.404 20.3813C133.453 17.8569 139.132 12.5333 145.452 11.4342" stroke="#FFA400" stroke-width="0.736823" stroke-linecap="round"/>
<path d="M114.33 59.1119C116.146 59.7743 120.718 61.8847 124.476 65.0281" stroke="#23BB86" stroke-width="0.736823" stroke-linecap="round"/>
<rect x="27.5342" y="104.439" width="89.8505" height="62.1103" fill="url(#paint8_linear_1229_554)"/>
<mask id="mask0_1229_554" style="mask-type:alpha" maskUnits="userSpaceOnUse" x="27" y="104" width="91" height="63">
<rect x="27.5342" y="104.439" width="89.8505" height="62.1103" fill="#C4C4C4"/>
</mask>
<g mask="url(#mask0_1229_554)">
<path d="M31.7856 102.858L92.9676 102.858L79.139 126.869L17.957 126.869L31.7856 102.858Z" fill="black" fill-opacity="0.07"/>
<rect x="88.6357" y="104.439" width="89.8505" height="62.1103" fill="url(#paint9_linear_1229_554)"/>
</g>
<path d="M27.4552 104.439L88.6372 104.439L76.8187 124.162L15.6367 124.162L27.4552 104.439Z" fill="url(#paint10_linear_1229_554)"/>
<mask id="mask1_1229_554" style="mask-type:alpha" maskUnits="userSpaceOnUse" x="88" y="104" width="30" height="63">
<rect x="88.6367" y="104.439" width="28.7479" height="62.1103" fill="#C4C4C4"/>
</mask>
<g mask="url(#mask1_1229_554)">
<path d="M113.885 104.336L85.0919 104.336L98.6211 127.043L127.414 127.043L113.885 104.336Z" fill="black" fill-opacity="0.07"/>
</g>
<path d="M117.431 104.439L88.6376 104.439L100.456 124.162L129.249 124.162L117.431 104.439Z" fill="url(#paint11_linear_1229_554)"/>
<circle cx="59.3863" cy="87.2411" r="8.49082" fill="url(#paint12_linear_1229_554)"/>
<circle cx="85.7868" cy="75.8913" r="8.20473" fill="url(#paint13_linear_1229_554)"/>
<circle cx="67.8771" cy="54.9853" r="6.61631" fill="url(#paint14_linear_1229_554)"/>
<circle cx="90.2877" cy="53.9868" r="1.65" fill="#FFA800" fill-opacity="0.23"/>
<circle cx="79.232" cy="91.4905" r="1.65" fill="#FFA800" fill-opacity="0.23"/>
<circle cx="52.1373" cy="66.0365" r="1.65" fill="#FFA800" fill-opacity="0.23"/>
<path d="M117.598 104.733H27.4644L13.6221 19.3853H134.22L117.598 104.733Z" fill="url(#paint15_linear_1229_554)"/>
<defs>
<linearGradient id="paint0_linear_1229_554" x1="53.709" y1="38.4735" x2="50.71" y2="46.1313" gradientUnits="userSpaceOnUse">
<stop stop-color="#FFE89E"/>
<stop offset="1" stop-color="#FFBF1A"/>
</linearGradient>
<linearGradient id="paint1_linear_1229_554" x1="47.9548" y1="24.9311" x2="45.9586" y2="30.0284" gradientUnits="userSpaceOnUse">
<stop stop-color="#FFE89E"/>
<stop offset="1" stop-color="#FFBF1A"/>
</linearGradient>
<linearGradient id="paint2_linear_1229_554" x1="34.4668" y1="9.99323" x2="31.4678" y2="17.6511" gradientUnits="userSpaceOnUse">
<stop stop-color="#FFE89E"/>
<stop offset="1" stop-color="#FFBF1A"/>
</linearGradient>
<linearGradient id="paint3_linear_1229_554" x1="33.0344" y1="40.9151" x2="28.6221" y2="52.1816" gradientUnits="userSpaceOnUse">
<stop stop-color="#FFE89E"/>
<stop offset="1" stop-color="#FFBF1A"/>
</linearGradient>
<linearGradient id="paint4_linear_1229_554" x1="92.291" y1="38.4735" x2="95.29" y2="46.1313" gradientUnits="userSpaceOnUse">
<stop stop-color="#FFE89E"/>
<stop offset="1" stop-color="#FFBF1A"/>
</linearGradient>
<linearGradient id="paint5_linear_1229_554" x1="98.0452" y1="24.9311" x2="100.041" y2="30.0284" gradientUnits="userSpaceOnUse">
<stop stop-color="#FFE89E"/>
<stop offset="1" stop-color="#FFBF1A"/>
</linearGradient>
<linearGradient id="paint6_linear_1229_554" x1="111.533" y1="9.99323" x2="114.532" y2="17.6511" gradientUnits="userSpaceOnUse">
<stop stop-color="#FFE89E"/>
<stop offset="1" stop-color="#FFBF1A"/>
</linearGradient>
<linearGradient id="paint7_linear_1229_554" x1="112.966" y1="40.9151" x2="117.378" y2="52.1816" gradientUnits="userSpaceOnUse">
<stop stop-color="#FFE89E"/>
<stop offset="1" stop-color="#FFBF1A"/>
</linearGradient>
<linearGradient id="paint8_linear_1229_554" x1="57.5484" y1="92.9403" x2="21.7382" y2="191.572" gradientUnits="userSpaceOnUse">
<stop stop-color="#FFD481"/>
<stop offset="1" stop-color="#FA620C"/>
</linearGradient>
<linearGradient id="paint9_linear_1229_554" x1="42.8636" y1="100.5" x2="151.544" y2="216.639" gradientUnits="userSpaceOnUse">
<stop stop-color="#FFD481"/>
<stop offset="0.83311" stop-color="#FA620C"/>
</linearGradient>
<linearGradient id="paint10_linear_1229_554" x1="28.7143" y1="97.3904" x2="25.8066" y2="139.413" gradientUnits="userSpaceOnUse">
<stop stop-color="#FFD481"/>
<stop offset="1" stop-color="#FA620C"/>
</linearGradient>
<linearGradient id="paint11_linear_1229_554" x1="121.974" y1="97.3904" x2="127.145" y2="138.971" gradientUnits="userSpaceOnUse">
<stop stop-color="#FFD481"/>
<stop offset="1" stop-color="#FA620C"/>
</linearGradient>
<linearGradient id="paint12_linear_1229_554" x1="60.0293" y1="75.948" x2="58.4142" y2="98.8668" gradientUnits="userSpaceOnUse">
<stop stop-color="#FF9F81"/>
<stop offset="1" stop-color="#F53838"/>
</linearGradient>
<linearGradient id="paint13_linear_1229_554" x1="86.4081" y1="64.9787" x2="84.8474" y2="87.1252" gradientUnits="userSpaceOnUse">
<stop stop-color="#FF9F81"/>
<stop offset="1" stop-color="#F53838"/>
</linearGradient>
<linearGradient id="paint14_linear_1229_554" x1="68.3781" y1="46.1854" x2="67.1195" y2="64.0444" gradientUnits="userSpaceOnUse">
<stop stop-color="#FF9F81"/>
<stop offset="1" stop-color="#F53838"/>
</linearGradient>
<linearGradient id="paint15_linear_1229_554" x1="72.9301" y1="19.3853" x2="72.9301" y2="200.709" gradientUnits="userSpaceOnUse">
<stop stop-color="white" stop-opacity="0"/>
<stop offset="1" stop-color="#FE9277"/>
</linearGradient>
</defs>
</svg>
