<svg width="35" height="35" viewBox="0 0 35 35" fill="none" xmlns="http://www.w3.org/2000/svg">
<path d="M17.3996 0.580566C8.12111 0.580566 0.599609 8.10207 0.599609 17.3806C0.599609 26.6591 8.12111 34.1806 17.3996 34.1806C26.6781 34.1806 34.1996 26.6591 34.1996 17.3806C34.1996 8.10207 26.6781 0.580566 17.3996 0.580566ZM24.2334 14.3426C24.2404 14.4861 24.2421 14.6296 24.2421 14.7696C24.2421 19.1446 20.9154 24.1863 14.8289 24.1863C13.0304 24.1893 11.2693 23.6728 9.75736 22.6988C10.0146 22.7303 10.2789 22.7426 10.5466 22.7426C12.0971 22.7426 13.5234 22.2158 14.6556 21.3268C13.9656 21.3133 13.297 21.0848 12.7431 20.6732C12.1891 20.2617 11.7773 19.6875 11.5651 19.0308C12.0606 19.125 12.5711 19.1053 13.0579 18.9731C12.3089 18.8216 11.6355 18.4158 11.1516 17.8245C10.6677 17.2331 10.4033 16.4926 10.4031 15.7286V15.6883C10.8494 15.9351 11.3604 16.0856 11.9029 16.1031C11.2008 15.6357 10.7037 14.9177 10.5134 14.0961C10.3231 13.2744 10.454 12.411 10.8791 11.6826C11.7103 12.7046 12.7468 13.5406 13.9216 14.1366C15.0964 14.7326 16.3833 15.0752 17.6989 15.1423C17.5316 14.4324 17.6036 13.687 17.9036 13.0222C18.2037 12.3574 18.7149 11.8103 19.358 11.466C20.001 11.1218 20.7398 10.9996 21.4594 11.1185C22.1791 11.2374 22.8393 11.5907 23.3374 12.1236C24.0779 11.9771 24.7881 11.7054 25.4374 11.3203C25.1905 12.0871 24.6738 12.7381 23.9831 13.1526C24.6391 13.0736 25.2796 12.8972 25.8836 12.6293C25.44 13.2941 24.8811 13.8743 24.2334 14.3426Z" fill="white"/>
</svg>
