<svg width="71" height="71" viewBox="0 0 71 71" fill="none" xmlns="http://www.w3.org/2000/svg">
<g filter="url(#filter0_d_1229_129)">
<circle cx="35.3996" cy="22.3805" r="16.7999" fill="#F53838"/>
</g>
<path d="M35.3996 5.58057C26.1211 5.58057 18.5996 13.1021 18.5996 22.3806C18.5996 31.6591 26.1211 39.1806 35.3996 39.1806C44.6781 39.1806 52.1996 31.6591 52.1996 22.3806C52.1996 13.1021 44.6781 5.58057 35.3996 5.58057ZM42.2334 19.3426C42.2404 19.4861 42.2421 19.6296 42.2421 19.7696C42.2421 24.1446 38.9154 29.1863 32.8289 29.1863C31.0304 29.1893 29.2693 28.6728 27.7574 27.6988C28.0146 27.7303 28.2789 27.7426 28.5466 27.7426C30.0971 27.7426 31.5234 27.2158 32.6556 26.3268C31.9656 26.3133 31.297 26.0848 30.7431 25.6732C30.1891 25.2617 29.7773 24.6875 29.5651 24.0308C30.0606 24.125 30.5711 24.1053 31.0579 23.9731C30.3089 23.8216 29.6355 23.4158 29.1516 22.8245C28.6677 22.2331 28.4033 21.4926 28.4031 20.7286V20.6883C28.8494 20.9351 29.3604 21.0856 29.9029 21.1031C29.2008 20.6357 28.7037 19.9177 28.5134 19.0961C28.3231 18.2744 28.454 17.411 28.8791 16.6826C29.7103 17.7046 30.7468 18.5406 31.9216 19.1366C33.0964 19.7326 34.3833 20.0752 35.6989 20.1423C35.5316 19.4324 35.6036 18.687 35.9036 18.0222C36.2037 17.3574 36.7149 16.8103 37.358 16.466C38.001 16.1218 38.7398 15.9996 39.4594 16.1185C40.1791 16.2374 40.8393 16.5907 41.3374 17.1236C42.0779 16.9771 42.7881 16.7054 43.4374 16.3203C43.1905 17.0871 42.6738 17.7381 41.9831 18.1526C42.6391 18.0736 43.2796 17.8972 43.8836 17.6293C43.44 18.2941 42.8811 18.8743 42.2334 19.3426Z" fill="white"/>
<defs>
<filter id="filter0_d_1229_129" x="0.599609" y="0.580566" width="69.5996" height="69.6001" filterUnits="userSpaceOnUse" color-interpolation-filters="sRGB">
<feFlood flood-opacity="0" result="BackgroundImageFix"/>
<feColorMatrix in="SourceAlpha" type="matrix" values="0 0 0 0 0 0 0 0 0 0 0 0 0 0 0 0 0 0 127 0" result="hardAlpha"/>
<feOffset dy="13"/>
<feGaussianBlur stdDeviation="9"/>
<feColorMatrix type="matrix" values="0 0 0 0 0.0658854 0 0 0 0 0.0730469 0 0 0 0 0.1375 0 0 0 0.08 0"/>
<feBlend mode="normal" in2="BackgroundImageFix" result="effect1_dropShadow_1229_129"/>
<feBlend mode="normal" in="SourceGraphic" in2="effect1_dropShadow_1229_129" result="shape"/>
</filter>
</defs>
</svg>
