<svg width="55" height="56" viewBox="0 0 55 56" fill="none" xmlns="http://www.w3.org/2000/svg">
<rect y="0.0493164" width="55" height="55" rx="27.5" fill="#FFECEC"/>
<path fill-rule="evenodd" clip-rule="evenodd" d="M27.4996 26.3493C28.4544 26.3493 29.3701 25.97 30.0452 25.2949C30.7203 24.6198 31.0996 23.7041 31.0996 22.7493C31.0996 21.7945 30.7203 20.8789 30.0452 20.2037C29.3701 19.5286 28.4544 19.1493 27.4996 19.1493C26.5448 19.1493 25.6292 19.5286 24.954 20.2037C24.2789 20.8789 23.8996 21.7945 23.8996 22.7493C23.8996 23.7041 24.2789 24.6198 24.954 25.2949C25.6292 25.97 26.5448 26.3493 27.4996 26.3493ZM22.3983 37.1493C20.5765 37.1493 19.0419 35.6179 19.739 33.9348C20.1612 32.9156 20.7799 31.9896 21.5599 31.2096C22.3399 30.4296 23.2659 29.8109 24.2851 29.3887C25.3042 28.9666 26.3965 28.7493 27.4996 28.7493C28.6027 28.7493 29.695 28.9666 30.7142 29.3887C31.7333 29.8109 32.6593 30.4296 33.4393 31.2096C34.2193 31.9896 34.8381 32.9156 35.2602 33.9348C35.9574 35.6179 34.4228 37.1493 32.601 37.1493H22.3983Z" fill="#F53838"/>
</svg>
